<?xml version="1.0" encoding="iso-8859-1"?>
<!-- Generator: Adobe Illustrator 19.0.0, SVG Export Plug-In . SVG Version: 6.00 Build 0)  -->
<svg version="1.1" id="Layer_1" xmlns="http://www.w3.org/2000/svg" xmlns:xlink="http://www.w3.org/1999/xlink" x="0px" y="0px"
	 viewBox="0 0 1000 1000" style="enable-background:new 0 0 512 512;" xml:space="preserve">
<path style="fill:#c54620;" d="M502.747,289.928c0-91.986-74.568-166.554-166.554-166.554c-29.074,0-56.403,7.457-80.193,20.552
	c-23.79-13.095-51.119-20.552-80.193-20.552c-91.986,0-166.554,74.568-166.554,166.554c0,89.92,71.259,163.182,160.386,166.428
	v0.126h172.723v-0.126C431.488,453.111,502.747,379.848,502.747,289.928z"/>
<path style="fill:#DC4161;" d="M336.193,123.374c-8.368,0-16.588,0.638-24.624,1.83c80.259,11.945,141.829,81.142,141.829,164.725
	c0,89.92-71.259,163.182-160.386,166.428v0.126h49.349v-0.126c89.126-3.247,160.386-76.51,160.386-166.428
	C502.747,197.942,428.179,123.374,336.193,123.374z"/>
<path style="fill:#95D5A7;" d="M311.518,135.711c0-12.15,29.009-34.699,21.73-44.248c-6.887-9.035-38.71,11.671-50.103,6.637
	C272.813,93.537,268.508,55.519,256,55.519s-16.813,38.019-27.145,42.584c-11.395,5.034-43.219-15.671-50.106-6.636
	c-7.277,9.548,21.732,32.096,21.732,44.245c0,12.15-29.009,34.699-21.73,44.248c6.885,9.035,38.71-11.671,50.103-6.637
	c10.331,4.565,14.637,42.584,27.145,42.584c12.508,0,16.813-38.019,27.145-42.584c11.395-5.034,43.219,15.671,50.106,6.636
	C340.527,170.409,311.518,147.861,311.518,135.711z"/>
<g>
	<path style="fill:#80CB93;" d="M258.47,98.102c4.672,2.064,12.783-0.201,21.198-2.968C271.666,84.963,267.01,55.519,256,55.519
		c-5.184,0-8.958,6.536-12.337,14.51C248.436,81.293,252.421,95.43,258.47,98.102z"/>
	<path style="fill:#80CB93;" d="M258.47,173.321c-6.049,2.672-10.034,16.81-14.807,28.074c3.379,7.974,7.153,14.51,12.337,14.51
		c11.01,0,15.666-29.446,23.668-39.615C271.253,173.522,263.142,171.257,258.47,173.321z"/>
	<path style="fill:#80CB93;" d="M311.518,135.711c0-12.15,29.009-34.699,21.73-44.248c-3.483-4.57-13.347-1.53-23.719,1.938
		c2.808,10.391-22.686,30.92-22.686,42.31s25.495,31.919,22.687,42.308c10.372,3.468,20.236,6.507,23.72,1.937
		C340.527,170.409,311.518,147.861,311.518,135.711z"/>
</g>
<path style="fill:#2E2D31;" d="M355.741,115.197c-5.068-0.555-9.651,3.099-10.214,8.178c-0.563,5.079,3.099,9.653,8.178,10.215
	c79.692,8.821,139.788,76.031,139.788,156.338c0,85.045-66.534,154.089-151.469,157.182c-0.402,0.015-0.798,0.056-1.186,0.12
	H171.161c-0.387-0.064-0.783-0.105-1.186-0.12C85.04,444.017,18.506,374.973,18.506,289.928
	c0-86.737,70.565-157.301,157.301-157.301c4.818,0,9.661,0.225,14.456,0.66c0.514,0.972,0.867,1.812,0.957,2.424
	c-0.413,2.802-6.107,10.21-9.524,14.658c-8.737,11.371-18.641,24.259-10.304,35.198c7.675,10.07,21.856,5.31,35.567,0.707
	c5.553-1.863,14.694-4.939,17.936-4.503c2.025,2.184,5.103,10.167,6.976,15.027c5.125,13.293,10.935,28.36,24.128,28.36
	s19.002-15.066,24.128-28.36c1.874-4.86,4.952-12.843,6.976-15.027c3.245-0.436,12.383,2.64,17.935,4.503
	c13.714,4.602,27.892,9.362,35.57-0.708c8.339-10.94-1.567-23.827-10.304-35.197c-3.419-4.446-9.112-11.855-9.526-14.657
	c0.413-2.802,6.107-10.21,9.524-14.658c8.737-11.371,18.641-24.259,10.304-35.198c-7.673-10.07-21.854-5.309-35.567-0.707
	c-5.553,1.864-14.691,4.94-17.936,4.503c-2.025-2.182-5.103-10.167-6.976-15.027c-5.125-13.294-10.935-28.36-24.127-28.36
	s-19.002,15.066-24.128,28.36c-1.874,4.86-4.952,12.843-6.976,15.027c-3.242,0.437-12.383-2.64-17.935-4.503
	c-13.715-4.602-27.894-9.363-35.57,0.708c-6.683,8.768-1.645,18.787,5.118,28.275c-0.233-0.001-0.468-0.01-0.702-0.01
	C78.867,114.121,0,192.988,0,289.928c0,45.825,17.534,89.204,49.37,122.146c31.392,32.483,73.374,51.432,118.368,53.465
	c0.613,0.128,1.249,0.195,1.9,0.195h172.723c0.651,0,1.287-0.068,1.9-0.195c44.996-2.033,86.976-20.982,118.368-53.465
	C494.466,379.132,512,335.753,512,289.928C512,200.175,444.823,125.057,355.741,115.197z M201.074,102.693
	c11.775,3.953,22.897,7.684,31.522,3.873c8.192-3.62,12.062-13.659,16.544-25.283c1.68-4.36,4.551-11.806,6.861-15.255
	c2.308,3.45,5.179,10.895,6.861,15.255c4.482,11.624,8.354,21.663,16.544,25.283c8.626,3.811,19.747,0.079,31.523-3.874
	c3.545-1.189,8.681-2.913,12.493-3.778c-2.05,3.393-5.453,7.821-7.79,10.863c-6.876,8.945-13.368,17.393-13.368,25.934
	c0,8.542,6.493,16.99,13.366,25.933c2.337,3.042,5.739,7.47,7.79,10.862c-3.813-0.865-8.951-2.588-12.495-3.778
	c-11.775-3.953-22.896-7.682-31.522-3.873c-8.192,3.62-12.062,13.659-16.544,25.283c-1.68,4.36-4.551,11.806-6.861,15.255
	c-2.308-3.45-5.179-10.895-6.861-15.255c-4.482-11.624-8.354-21.663-16.544-25.283c-2.543-1.124-5.304-1.592-8.234-1.592
	c-7.008,0-14.985,2.677-23.289,5.465c-3.545,1.189-8.681,2.913-12.493,3.778c2.05-3.393,5.453-7.821,7.791-10.863
	c6.874-8.943,13.366-17.392,13.366-25.933c0-8.542-6.493-16.99-13.366-25.934c-2.338-3.042-5.739-7.47-7.79-10.862
	C192.391,99.78,197.528,101.504,201.074,102.693z"/>
<g>
</g>
<g>
</g>
<g>
</g>
<g>
</g>
<g>
</g>
<g>
</g>
<g>
</g>
<g>
</g>
<g>
</g>
<g>
</g>
<g>
</g>
<g>
</g>
<g>
</g>
<g>
</g>
<g>
</g>
</svg>
